<svg id="visual" viewBox="0 0 960 540" width="960" height="540" xmlns="http://www.w3.org/2000/svg" xmlns:xlink="http://www.w3.org/1999/xlink" version="1.1"><rect x="0" y="0" width="960" height="540" fill="#001122"></rect><g fill="#4FACF7"><path d="M0 -144.4L32.4 -44.6L137.3 -44.6L52.5 17L84.9 116.8L0 55.2L-84.9 116.8L-52.5 17L-137.3 -44.6L-32.4 -44.6Z" transform="translate(21 66)"></path><path d="M0 -72.7L16.3 -22.5L69.1 -22.5L26.4 8.6L42.7 58.8L0 27.8L-42.7 58.8L-26.4 8.6L-69.1 -22.5L-16.3 -22.5Z" transform="translate(288 309)"></path><path d="M0 -89.7L20.1 -27.7L85.3 -27.7L32.6 10.6L52.7 72.5L0 34.2L-52.7 72.5L-32.6 10.6L-85.3 -27.7L-20.1 -27.7Z" transform="translate(610 254)"></path><path d="M0 -86.8L19.5 -26.8L82.6 -26.8L31.5 10.2L51 70.2L0 33.2L-51 70.2L-31.5 10.2L-82.6 -26.8L-19.5 -26.8Z" transform="translate(860 471)"></path><path d="M0 -135.9L30.5 -42L129.3 -42L49.4 16L79.9 110L0 51.9L-79.9 110L-49.4 16L-129.3 -42L-30.5 -42Z" transform="translate(887 70)"></path></g></svg>